<?xml version="1.0" encoding="utf-8"?>
<!-- Generator: Adobe Illustrator 19.0.0, SVG Export Plug-In . SVG Version: 6.00 Build 0)  -->
<svg version="1.1" id="Layer_1" xmlns="http://www.w3.org/2000/svg" xmlns:xlink="http://www.w3.org/1999/xlink" x="0px" y="0px"
	 viewBox="0 0 500 110" style="enable-background:new 0 0 500 110;" xml:space="preserve">
<style type="text/css">
	.st0{fill:#FFFFFF;}
</style>
<g id="XMLID_4_">
	<path id="XMLID_5_" class="st0" d="M31.3,89.3V108c0,0.5-0.4,0.9-0.9,0.9H8.6c-0.5,0-0.9-0.4-0.9-0.9V8.9C7.7,8.4,8.1,8,8.6,8h21.8
		c0.5,0,0.9,0.4,0.9,0.9v50.2c0,0.8,1,1.2,1.5,0.6l22.4-23.8c0.2-0.2,0.4-0.3,0.6-0.3H80c0.8,0,1.2,0.9,0.6,1.5l-25,26.2
		c-0.3,0.3-0.3,0.7-0.1,1.1l26.6,43.2c0.4,0.6-0.1,1.3-0.8,1.3H55.6c-0.3,0-0.6-0.2-0.8-0.5L39.7,81.7c-0.3-0.5-1-0.6-1.4-0.2
		l-6.8,7.2C31.3,88.8,31.3,89,31.3,89.3z"/>
	<path id="XMLID_70_" class="st0" d="M156.2,78.6l-49.5,0c-0.6,0-1,0.6-0.8,1.2c2.5,8,8.6,12.4,16.9,12.4c6.1,0,12.1-2.4,16.9-6.9
		c0.3-0.3,0.9-0.3,1.2,0l11.1,10.9c0.3,0.3,0.4,0.9,0,1.2c-7.5,7.8-18.3,12.3-31.4,12.3c-23.2,0-38-14.1-38.9-35.3
		C81,51.9,100,33.9,122.5,34.9c23.9,1.1,35.8,17.5,34.5,42.9C157.1,78.2,156.7,78.6,156.2,78.6z M133.6,65.9c0.5,0,0.9-0.4,0.9-0.9
		c-0.4-8.5-6-13.9-14.1-13.9c-7.8,0-13.3,5.5-15,13.8c-0.1,0.5,0.3,1,0.9,1H133.6z"/>
	<path id="XMLID_73_" class="st0" d="M239,72.2c0,22.6-16,37.5-40,37.5c-24.1,0-40.1-15-40.1-37.5c0-22.6,16-37.4,40.1-37.4
		C223,34.8,239,49.6,239,72.2z M182.6,72.5c0,11.4,6.7,19,16.5,19c9.7,0,16.3-7.6,16.3-19c0-11.3-6.7-19-16.3-19
		C189.3,53.4,182.6,61.2,182.6,72.5z"/>
	<path id="XMLID_76_" class="st0" d="M321.7,62.7V108c0,0.5-0.4,0.9-0.9,0.9h-21.6c-0.5,0-0.9-0.4-0.9-0.9V69.2
		c0-8.6-5-13.9-12.9-13.9c-8.5,0-14,6.1-15,14.8c0,0,0,0.1,0,0.1l0,37.8c0,0.5-0.4,0.9-0.9,0.9h-21.8c-0.5,0-0.9-0.4-0.9-0.9V36.5
		c0-0.5,0.4-0.9,0.9-0.9h21.8c0.5,0,0.9,0.4,0.9,0.9v8.2c0,0.9,1.1,1.2,1.6,0.5c5.2-7,13.1-10.5,22.9-10.7
		C311.1,34.5,321.7,45.5,321.7,62.7z"/>
	<path id="XMLID_78_" class="st0" d="M357.8,16.3C357,22.7,352.1,27,345.5,27c-7.2,0-12.4-5.2-12.4-12.5c0-6.7,4.5-11.6,10.9-12.3
		C352.3,1.4,358.8,8,357.8,16.3z M333.7,108V36.5c0-0.5,0.4-0.9,0.9-0.9h21.6c0.5,0,0.9,0.4,0.9,0.9V108c0,0.5-0.4,0.9-0.9,0.9
		h-21.6C334.1,108.9,333.7,108.5,333.7,108z"/>
	<path id="XMLID_81_" class="st0" d="M395.3,16.3C394.6,22.7,389.7,27,383,27c-7.2,0-12.4-5.2-12.4-12.5c0-6.7,4.5-11.6,10.9-12.3
		C389.9,1.4,396.3,8,395.3,16.3z M371.2,108V36.5c0-0.5,0.4-0.9,0.9-0.9h21.6c0.5,0,0.9,0.4,0.9,0.9V108c0,0.5-0.4,0.9-0.9,0.9
		h-21.6C371.6,108.9,371.2,108.5,371.2,108z"/>
	<path id="XMLID_84_" class="st0" d="M464.8,43.6l-7.2,13.7c-0.2,0.4-0.8,0.6-1.2,0.4c-8.5-4.5-16.4-6.9-22.3-6.9
		c-4.2,0-7.2,1.6-7.2,5c0,10.1,38.6,5.2,38.5,30.7c0,15.1-13.2,23.4-30.9,23.4c-12,0-23.5-3.4-32.3-9.9c-0.3-0.3-0.5-0.7-0.3-1.1
		l6.7-13.4c0.2-0.5,0.8-0.6,1.3-0.3c8.1,5.5,17.3,8.5,25.1,8.5c4.6,0,8-1.6,8-5c0-10.7-37.9-5.2-37.8-30.9
		c0-15.1,12.8-23.3,29.8-23.3c10.3,0,20.6,2.8,29.5,7.9C464.9,42.6,465,43.2,464.8,43.6z"/>
	<path id="XMLID_86_" class="st0" d="M492,101.2c-1.1,5.4-5.4,8.8-11.2,8.8c-6.7,0-11.3-4.6-11.3-11.4c0-5.9,3.6-10.2,9.1-11.1
		C487.4,86,493.7,92.5,492,101.2z"/>
</g>
</svg>
