<?xml version="1.0" encoding="UTF-8"?>
<svg id="Layer_2" data-name="Layer 2" xmlns="http://www.w3.org/2000/svg" viewBox="0 0 531.93 84.8">
  <defs>
    <style>
      .cls-1 {
        fill: #ef3b39;
      }
    </style>
  </defs>
  <g id="Layer_1-2" data-name="Layer 1">
    <path class="cls-1" d="m55.7,38.62l44.8,45.58h-26.3l-32.5-34.03-22.7,18.31v15.72H0V2.2h19v42.49L71.7,2.2h28.8l-44.8,36.42Z"/>
    <path class="cls-1" d="m185.6,42.3c0-27.3,13.8-42.3,45.9-42.3s45.9,15.1,45.9,42.3-13.9,42.5-45.9,42.5-45.9-15.1-45.9-42.5Zm73.1,0c0-16.7-7.5-24.5-27.1-24.5s-27.1,7.7-27.1,24.5,7.6,24.7,27.1,24.7,27.1-7.9,27.1-24.7Z"/>
    <path class="cls-1" d="m379,2.2v82h-25.6l-50.4-61.7v61.7h-19V2.2h25.5l50.5,61.9V2.2h19Z"/>
    <path class="cls-1" d="m406,84.2h-19V2.2h19v82Z"/>
    <path class="cls-1" d="m107,54.2v-21h73v21h-73Z"/>
    <path class="cls-1" d="m107,23.2V2.2h73v21h-73Z"/>
    <path class="cls-1" d="m107,84.2v-21h73v21h-73Z"/>
    <path class="cls-1" d="m433,84.2h-19V2.2h19v82Z"/>
    <path class="cls-1" d="m457.8,55.2c0,8.67,6.28,12.65,29.99,12.65,19.63,0,25.61-2.49,25.61-8.87,0-6.77-4.18-7.97-27.8-9.27-31.68-1.59-44.34-7.27-44.34-25.7S457.6.2,484.8.2s44.04,7.77,44.04,28h-18.73c0-9.07-7.97-11.26-27.4-11.26s-22.82,1.99-22.82,8.07c0,6.38,4.38,7.47,25.61,8.87,28.69,1.79,46.43,3.49,46.43,24.31,0,21.92-18.43,26.4-45.33,26.4-29.79,0-47.62-5.78-47.62-29.39h18.83Z"/>
  </g>
</svg>