<?xml version="1.0" encoding="UTF-8"?>
<svg id="Layer_2" data-name="Layer 2" xmlns="http://www.w3.org/2000/svg" viewBox="0 0 507.33 83.4">
  <defs>
    <style>
      .cls-1 {
        fill: none;
        stroke: #ef3b39;
        stroke-miterlimit: 10;
        stroke-width: 3px;
      }
    </style>
  </defs>
  <g id="Layer_2-2" data-name="Layer 2">
    <g id="Layer_1-2" data-name="Layer 1-2">
      <path class="cls-1" d="m54.31,38.12l42.48,43.21h-24.94l-30.81-32.26-21.52,17.36v14.9H1.5V3.59h18.01v40.29L69.48,3.59h27.31l-42.48,34.53Z"/>
      <path class="cls-1" d="m177.47,41.61c0-25.88,13.08-40.11,43.52-40.11s43.52,14.32,43.52,40.11-13.18,40.29-43.52,40.29-43.52-14.32-43.52-40.29Zm69.31,0c0-15.83-7.11-23.23-25.69-23.23s-25.69,7.3-25.69,23.23,7.21,23.42,25.69,23.42,25.69-7.49,25.69-23.42Z"/>
      <path class="cls-1" d="m360.83,3.59v77.75h-24.27l-47.78-58.5v58.5h-18.01V3.59h24.18l47.88,58.69V3.59h18.01Z"/>
      <path class="cls-1" d="m386.43,81.33h-18.01V3.59h18.01v77.75Z"/>
      <path class="cls-1" d="m102.95,52.89v-19.91h69.21v19.91h-69.21Z"/>
      <path class="cls-1" d="m102.95,23.5V3.59h69.21v19.91h-69.21Z"/>
      <path class="cls-1" d="m102.95,81.33v-19.91h69.21v19.91h-69.21Z"/>
      <path class="cls-1" d="m412.03,81.33h-18.01V3.59h18.01v77.75Z"/>
      <path class="cls-1" d="m435.55,53.84c0,8.22,5.95,11.99,28.43,11.99,18.61,0,24.28-2.36,24.28-8.41,0-6.42-3.96-7.56-26.36-8.79-30.04-1.51-42.04-6.89-42.04-24.37s15.49-22.57,41.28-22.57,41.75,7.37,41.75,26.55h-17.76c0-8.6-7.56-10.68-25.98-10.68s-21.64,1.89-21.64,7.65c0,6.05,4.15,7.08,24.28,8.41,27.2,1.7,44.02,3.31,44.02,23.05,0,20.78-17.47,25.03-42.98,25.03-28.24,0-45.15-5.48-45.15-27.87h17.85,0Z"/>
    </g>
  </g>
</svg>