<?xml version="1.0" encoding="utf-8"?>
<!-- Generator: Adobe Illustrator 27.3.1, SVG Export Plug-In . SVG Version: 6.00 Build 0)  -->
<svg version="1.1" id="Layer_1" xmlns="http://www.w3.org/2000/svg" xmlns:xlink="http://www.w3.org/1999/xlink" x="0px" y="0px"
	 viewBox="0 0 612 300" style="enable-background:new 0 0 612 300;" xml:space="preserve">
<style type="text/css">
	.st0{fill:#EF3B39;}
</style>
<path class="st0" d="M86.7,136.2l44.8,45.8h-26.3l-32.5-34.2L50,166.2v15.8H31V99.6h19v42.7l52.7-42.7h28.8L86.7,136.2z"/>
<path class="st0" d="M216.6,140.1c0-27.3,13.8-42.3,45.9-42.3c32,0,45.9,15.1,45.9,42.3c0,27.3-13.9,42.5-45.9,42.5
	C230.4,182.6,216.6,167.5,216.6,140.1z M289.7,140.1c0-16.7-7.5-24.5-27.1-24.5c-19.6,0-27.1,7.7-27.1,24.5c0,17,7.6,24.7,27.1,24.7
	C282.1,164.8,289.7,156.9,289.7,140.1z"/>
<path class="st0" d="M410,99.6v82.3h-25.6L334,120.2v61.8h-19V99.6h25.5l50.5,61.9V99.6H410z"/>
<path class="st0" d="M437,181.9h-19V99.6h19V181.9z"/>
<path class="st0" d="M137.5,151.8v-21.4h73v21.4H137.5z"/>
<path class="st0" d="M137.5,121V99.6h73V121H137.5z"/>
<path class="st0" d="M137.5,182.6v-21.4h73v21.4H137.5z"/>
<path class="st0" d="M464,181.9h-19V99.6h19V181.9z"/>
<path class="st0" d="M488.7,152.6c0,8.7,6.3,12.7,30.1,12.7c19.7,0,25.7-2.5,25.7-8.9c0-6.8-4.2-8-27.9-9.3
	c-31.8-1.6-44.5-7.3-44.5-25.8c0-18.1,16.4-23.9,43.7-23.9c27.5,0,44.2,7.8,44.2,28.1h-18.8c0-9.1-8-11.3-27.5-11.3
	c-18.5,0-22.9,2-22.9,8.1c0,6.4,4.4,7.5,25.7,8.9c28.8,1.8,46.6,3.5,46.6,24.4c0,22-18.5,26.5-45.5,26.5c-29.9,0-47.8-5.8-47.8-29.5
	H488.7z"/>
</svg>
